<?xml version="1.0" encoding="UTF-8" standalone="no"?>
<!DOCTYPE svg PUBLIC "-//W3C//DTD SVG 1.1//EN" "http://www.w3.org/Graphics/SVG/1.1/DTD/svg11.dtd">
<svg width="100%" height="100%" viewBox="0 0 1025 416" version="1.1" xmlns="http://www.w3.org/2000/svg" xmlns:xlink="http://www.w3.org/1999/xlink" xml:space="preserve" xmlns:serif="http://www.serif.com/" style="fill-rule:evenodd;clip-rule:evenodd;stroke-linejoin:round;stroke-miterlimit:2;">
    <g id="_36-logo" serif:id="36 logo" transform="matrix(13.0268,0,0,13.0268,-7885.56,-831.933)">
        <path d="M665.143,84.357C665.125,84.26 665.115,84.163 665.11,84.065C665.11,83.969 665.142,83.891 665.206,83.833C665.27,83.774 665.35,83.745 665.446,83.745L666.166,83.745C666.283,83.745 666.379,83.769 666.454,83.817C666.529,83.865 666.587,83.958 666.63,84.097C666.769,84.641 667.07,85.025 667.534,85.249C667.998,85.473 668.545,85.585 669.174,85.585C669.942,85.585 670.553,85.401 671.006,85.033C671.459,84.665 671.686,84.139 671.686,83.457C671.686,82.155 670.891,81.505 669.302,81.505L667.798,81.505C667.691,81.505 667.603,81.47 667.534,81.401C667.465,81.331 667.43,81.243 667.43,81.137L667.43,80.721C667.43,80.561 667.489,80.422 667.606,80.305L670.726,76.849L665.99,76.849C665.883,76.849 665.795,76.817 665.726,76.753C665.657,76.689 665.622,76.603 665.622,76.497L665.622,75.921C665.622,75.803 665.657,75.71 665.726,75.641C665.795,75.571 665.883,75.537 665.99,75.537L672.326,75.537C672.443,75.537 672.537,75.571 672.606,75.641C672.675,75.71 672.71,75.803 672.71,75.921L672.71,76.449C672.71,76.566 672.657,76.689 672.55,76.817L669.43,80.321L669.686,80.321C670.774,80.353 671.635,80.635 672.27,81.169C672.905,81.702 673.222,82.481 673.222,83.505C673.222,84.209 673.049,84.814 672.702,85.321C672.355,85.827 671.873,86.217 671.254,86.489C670.635,86.761 669.937,86.897 669.158,86.897C668.326,86.897 667.606,86.761 666.998,86.489C666.948,86.466 666.899,86.443 666.851,86.42L666.851,90.153L670.691,87.562C670.883,87.447 671.017,87.374 671.094,87.342C671.171,87.311 671.293,87.295 671.459,87.295L672.419,87.295C672.534,87.295 672.627,87.324 672.697,87.382C672.768,87.439 672.803,87.52 672.803,87.625C672.803,87.719 672.732,87.819 672.592,87.923L668.099,90.938L673.072,94.833C673.212,94.948 673.283,95.048 673.283,95.131C673.283,95.226 673.248,95.304 673.177,95.367C673.107,95.43 673.014,95.461 672.899,95.461L671.958,95.461C671.766,95.461 671.629,95.445 671.545,95.414C671.462,95.383 671.344,95.309 671.19,95.194L666.851,91.834L666.851,95.1C666.851,95.205 666.81,95.291 666.727,95.359C666.643,95.427 666.538,95.461 666.41,95.461L665.584,95.461C665.456,95.461 665.351,95.427 665.267,95.359C665.184,95.291 665.143,95.205 665.143,95.1L665.143,84.357ZM674.991,84.374C674.847,83.958 674.774,83.519 674.774,83.057C674.774,82.139 675.142,81.158 675.878,80.113L678.934,75.857C678.945,75.846 678.974,75.809 679.022,75.745C679.07,75.681 679.131,75.63 679.206,75.593C679.281,75.555 679.366,75.537 679.462,75.537L680.246,75.537C680.342,75.537 680.419,75.571 680.478,75.641C680.537,75.71 680.566,75.793 680.566,75.889C680.566,75.942 680.539,76.011 680.486,76.097L678.15,79.361C678.427,79.297 678.737,79.265 679.078,79.265C679.857,79.265 680.542,79.438 681.134,79.785C681.726,80.131 682.185,80.59 682.51,81.161C682.835,81.731 682.998,82.358 682.998,83.041C682.998,83.723 682.835,84.361 682.51,84.953C682.185,85.545 681.713,86.017 681.094,86.369C680.475,86.721 679.745,86.897 678.902,86.897C678.073,86.897 677.351,86.733 676.739,86.405L676.739,88.3C677.455,87.525 678.492,87.138 679.849,87.138C681.193,87.138 682.2,87.497 682.872,88.214C683.544,88.931 683.9,89.829 683.938,90.907C683.951,91.022 683.957,91.179 683.957,91.378C683.957,91.577 683.951,91.734 683.938,91.849C683.9,92.928 683.544,93.825 682.872,94.542C682.2,95.26 681.193,95.618 679.849,95.618C678.466,95.618 677.41,95.22 676.681,94.425L676.681,95.1C676.681,95.205 676.639,95.291 676.556,95.359C676.473,95.427 676.367,95.461 676.239,95.461L675.433,95.461C675.305,95.461 675.199,95.427 675.116,95.359C675.033,95.291 674.991,95.205 674.991,95.1L674.991,84.374ZM678.886,85.569C679.355,85.569 679.787,85.473 680.182,85.281C680.577,85.089 680.891,84.803 681.126,84.425C681.361,84.046 681.478,83.59 681.478,83.057C681.478,82.534 681.358,82.083 681.118,81.705C680.878,81.326 680.561,81.038 680.166,80.841C679.771,80.643 679.345,80.545 678.886,80.545C678.427,80.545 678.001,80.643 677.606,80.841C677.211,81.038 676.897,81.326 676.662,81.705C676.427,82.083 676.31,82.534 676.31,83.057C676.31,83.59 676.427,84.046 676.662,84.425C676.897,84.803 677.211,85.089 677.606,85.281C678.001,85.473 678.427,85.569 678.886,85.569ZM679.484,94.393C680.405,94.393 681.077,94.158 681.5,93.687C681.922,93.216 682.152,92.598 682.191,91.834C682.204,91.729 682.21,91.577 682.21,91.378C682.21,89.368 681.301,88.363 679.484,88.363C678.614,88.363 677.945,88.596 677.478,89.062C677.011,89.528 676.764,90.08 676.739,90.719C676.726,90.834 676.719,91.038 676.719,91.331C676.719,91.614 676.726,91.813 676.739,91.928C676.764,92.598 677.004,93.176 677.458,93.663C677.913,94.15 678.588,94.393 679.484,94.393Z"/>
    </g>
    <g id="ge" transform="matrix(0.74231,0,0,0.74231,-18.8715,-165.69)">
        <path id="main" d="M593.327,504.488L593.039,504.488C593.039,628.033 675.532,756.288 833.451,756.288C995.001,756.288 1061.98,622.522 1051.95,503.497L1051.17,494.337L826.337,494.337L826.337,514.337L1032.62,514.337C1037.71,620.494 976.64,736.288 833.451,736.288C692.769,736.288 617.682,625.081 613.247,514.847L680.221,514.847L680.751,505.408C689.045,357.79 876.168,297.811 966.863,423.099L973.741,432.6L982.034,424.306C992.577,413.763 1036.27,369.981 1036.27,369.981L1022.23,355.735C1022.23,355.735 990.619,387.615 975.978,402.126C873.516,275.854 677.771,339.132 661.538,494.847C661.538,494.847 593.327,494.847 593.327,494.847L593.327,504.488Z"/>
        <path id="inner" d="M886.031,577.001C901.483,577.135 936.176,577.428 957.4,577.539C942.838,629.383 908.029,659.893 867.351,669.887C800.953,686.201 722.08,651.48 687.452,566.677L668.224,566.758C704.2,667.696 797.356,707.679 872.123,689.31C922.512,676.93 965.717,637.799 979.903,569.619L982.408,557.582L970.113,557.582C954.255,557.582 904.502,557.161 885.674,556.997C881.412,545.615 870.43,537.504 857.568,537.504C841.011,537.504 827.568,550.946 827.568,567.504C827.568,584.061 841.011,597.504 857.568,597.504C870.807,597.504 882.055,588.909 886.031,577.001ZM857.568,557.504C863.087,557.504 867.568,561.985 867.568,567.504C867.568,573.023 863.087,577.504 857.568,577.504C852.049,577.504 847.568,573.023 847.568,567.504C847.568,561.985 852.049,557.504 857.568,557.504Z"/>
        <path id="top" d="M627.965,387.966C626.719,387.808 625.45,387.727 624.162,387.727C607.604,387.727 594.162,401.17 594.162,417.727C594.162,434.284 607.604,447.727 624.162,447.727C640.719,447.727 654.162,434.284 654.162,417.727C654.162,409.702 651.004,402.408 645.865,397.023C718.066,278.88 865.937,261.773 963.635,330.286L975.118,313.911C868.271,238.982 706.328,257.936 627.965,387.966ZM624.162,407.727C629.681,407.727 634.162,412.208 634.162,417.727C634.162,423.246 629.681,427.727 624.162,427.727C618.643,427.727 614.162,423.246 614.162,417.727C614.162,412.208 618.643,407.727 624.162,407.727Z"/>
    </g>
    <g id="em" transform="matrix(0.74231,0,0,0.74231,-18.8715,-165.69)">
        <path id="bottom" d="M95.099,399.209L25.423,748.4L115.952,748.4L159.757,499.265L285.328,783.586L413.625,499.816L452.301,747.98L564.41,747.98L559.273,727.98L469.425,727.98C469.425,727.98 423.051,430.419 423.051,430.419L285.541,734.566L151.458,430.97L99.162,728.4C99.162,728.4 49.808,728.4 49.808,728.4L114.789,402.737C129.037,400.412 139.928,388.033 139.928,373.129C139.928,356.572 126.485,343.129 109.928,343.129C93.371,343.129 79.928,356.572 79.928,373.129C79.928,384.294 86.04,394.042 95.099,399.209ZM109.928,363.129C115.447,363.129 119.928,367.61 119.928,373.129C119.928,378.648 115.447,383.129 109.928,383.129C104.409,383.129 99.928,378.648 99.928,373.129C99.928,367.61 104.409,363.129 109.928,363.129Z"/>
        <path id="top1" serif:id="top" d="M522.273,632.463L449.276,223.209L286.369,581.544C286.369,581.544 127.586,224.789 127.586,224.789L106.771,224.716L286.112,630.432L440.876,290.012L502.508,635.551C493.129,640.627 486.753,650.552 486.753,661.955C486.753,678.513 500.195,691.955 516.753,691.955C533.31,691.955 546.753,678.513 546.753,661.955C546.753,647.284 536.198,635.058 522.273,632.463ZM516.753,651.955C522.272,651.955 526.753,656.436 526.753,661.955C526.753,667.475 522.272,671.955 516.753,671.955C511.234,671.955 506.753,667.475 506.753,661.955C506.753,656.436 511.234,651.955 516.753,651.955Z"/>
    </g>
</svg>
